PathFileType	4	(X/Y/Z)	Kaydara																																																																																																																									
DataRate	CameraRate	NumFrames	NumMarkers	Units	OrigDataRate	OrigDataStartFrame	OrigNumFrames																																																																																																																					
30	30	5	41	mm	30	175	349																																																																																																																					
Frame#	Time	EMLA_LFHD			EMLA_RFHD			EMLA_LBHD			EMLA_RBHD			EMLA_LFTShould			EMLA_RFTShould			EMLA_LRRShould			EMLA_RRRShould			EMLA_T10			EMLA_STRN			EMLA_TRUN			EMLA_LSHO			EMLA_LUPA			EMLA_LELB			EMLA_LFRM			EMLA_LWRA			EMLA_LWRB			EMLA_LFIN			EMLA_RSHO			EMLA_RUPA			EMLA_RELB			EMLA_RFRM			EMLA_RWRA			EMLA_RWRB			EMLA_RFIN			EMLA_LFWT			EMLA_RFWT			EMLA_LBWT			EMLA_RBWT			EMLA_LTHI			EMLA_LKNE			EMLA_LSHN			EMLA_LANK			EMLA_LHEE			EMLA_LTOE			EMLA_RTHI			EMLA_RKNE			EMLA_RSHN			EMLA_RANK			EMLA_RHEE			EMLA_RTOE		
		X1	Y1	Z1	X2	Y2	Z2	X3	Y3	Z3	X4	Y4	Z4	X5	Y5	Z5	X6	Y6	Z6	X7	Y7	Z7	X8	Y8	Z8	X9	Y9	Z9	X10	Y10	Z10	X11	Y11	Z11	X12	Y12	Z12	X13	Y13	Z13	X14	Y14	Z14	X15	Y15	Z15	X16	Y16	Z16	X17	Y17	Z17	X18	Y18	Z18	X19	Y19	Z19	X20	Y20	Z20	X21	Y21	Z21	X22	Y22	Z22	X23	Y23	Z23	X24	Y24	Z24	X25	Y25	Z25	X26	Y26	Z26	X27	Y27	Z27	X28	Y28	Z28	X29	Y29	Z29	X30	Y30	Z30	X31	Y31	Z31	X32	Y32	Z32	X33	Y33	Z33	X34	Y34	Z34	X35	Y35	Z35	X36	Y36	Z36	X37	Y37	Z37	X38	Y38	Z38	X39	Y39	Z39	X40	Y40	Z40	X41	Y41	Z41
																																																																																																																												
175	5.81	225.80336	1611.67572	-227.98538	63.9014	1567.42462	-259.01615	269.66024	1602.6062	-371.521	85.05276	1554.51645	-409.62818	276.75848	1358.06854	-289.91985	127.00733	1345.10727	-288.04968	269.16708	1420.34698	-433.09868	111.78546	1407.14722	-431.41151	206.0533	1248.88268	-496.65886	202.53695	1282.23282	-259.40256	198.40088	1177.60498	-251.38105	403.00587	1386.40411	-341.45546	457.57595	1207.31552	-389.48929	472.02305	1067.25937	-417.72743	474.98589	933.86131	-434.48608	407.07901	773.3931	-372.25834	456.89861	768.76251	-441.4743	459.13033	725.12779	-386.7181	2.29828	1379.61441	-352.18636	-53.20889	1183.34694	-370.80929	-67.18455	1044.7168	-404.05964	-70.74028	945.52505	-420.50377	-1.00916	770.89127	-342.61562	-54.85614	763.12881	-411.04584	-61.89154	725.02235	-358.74966	289.09775	949.51866	-278.72837	55.81019	941.49124	-309.40424	288.04281	969.72488	-481.19316	110.93145	985.4274	-489.96525	332.32433	667.19742	-387.27394	324.93954	488.47095	-274.80036	299.02578	323.15742	-206.55966	297.3435	134.14365	-215.20863	227.51478	52.33964	-244.37778	268.71246	57.47829	-51.03016	93.50175	705.31448	-542.9248	67.83808	494.18594	-520.23552	133.83604	277.74433	-558.81287	115.12477	134.3786	-668.23914	175.0996	102.721	-732.10785	153.84871	51.75065	-538.95226
176	5.843	232.49149	1609.83795	-207.10398	70.43605	1568.02322	-240.8066	278.49722	1600.26932	-349.89151	93.88277	1554.89014	-391.06342	280.9779	1355.63309	-267.36092	130.77806	1344.02496	-269.19474	277.24632	1418.52478	-410.42942	119.64887	1406.36749	-412.74078	214.52917	1246.97197	-475.26619	205.14582	1280.65903	-238.69402	199.78622	1176.14807	-230.27943	408.68832	1382.95181	-316.02272	463.00041	1203.75076	-363.92727	477.0755	1063.83911	-393.29544	480.2631	931.58989	-412.73392	410.13916	769.36409	-357.94514	462.59434	766.79207	-424.74113	462.49779	721.51878	-371.55476	7.80401	1379.68857	-336.71898	-48.41876	1183.3474	-355.58647	-62.72419	1044.72267	-388.34408	-66.78419	945.82138	-404.53197	0.01878	770.75569	-325.16026	-52.60861	763.42255	-394.48555	-61.13151	725.59311	-342.12883	289.12579	949.52461	-254.68481	57.40128	940.14778	-291.07899	294.89807	969.17526	-457.28245	117.38574	983.61343	-470.29438	334.5089	667.38243	-366.29818	325.45605	486.94813	-261.02398	295.97778	322.08961	-192.30095	298.44498	133.97239	-196.53198	228.25621	56.39087	-235.17469	269.77184	53.77958	-38.57407	97.92157	705.81436	-525.21343	70.03553	494.55772	-506.22204	134.20159	278.78929	-550.17921	114.32508	138.90142	-664.13361	174.18959	109.08647	-728.86818	153.34969	51.55595	-538.08495
177	5.877	239.60966	1611.16806	-185.43713	77.3121	1572.28394	-222.06432	288.3617	1600.23376	-327.23495	103.83132	1557.98706	-371.88679	284.92743	1355.2626	-244.4895	134.34583	1345.31586	-249.57428	285.14359	1419.84314	-386.97147	126.97479	1408.63678	-393.31352	222.25479	1248.46375	-453.71342	207.63966	1281.6008	-217.50641	200.93458	1177.28325	-208.3626	413.84357	1381.64597	-289.7818	468.49201	1202.05116	-337.23248	481.86043	1062.1843	-366.35685	485.69405	930.81657	-387.90436	413.01849	767.86247	-338.68481	468.18493	766.35574	-403.33256	465.6525	719.95247	-351.2949	12.75949	1383.2016	-320.05493	-42.93821	1186.71974	-339.54269	-57.14365	1047.57889	-371.14182	-61.46533	949.21806	-386.88332	3.98615	773.93677	-306.59048	-47.81909	766.85448	-376.83353	-58.01911	729.72977	-324.13078	290.5154	954.89815	-232.47028	60.01223	940.02739	-270.80238	299.25135	974.30641	-435.47134	121.21212	983.13492	-449.72866	339.22779	674.38416	-346.83723	328.40706	490.59246	-246.25513	299.02174	322.95818	-185.51033	299.78855	134.33573	-199.4878	229.26222	55.74779	-236.4131	266.93254	53.46954	-38.96376	103.12962	706.17714	-503.94592	72.82636	495.75275	-487.8479	135.185	281.09459	-538.73569	113.79622	145.42408	-657.91901	173.44034	118.12231	-723.5775	153.16241	51.3141	-536.67747
178	5.91	247.65858	1614.17969	-163.30063	85.17851	1579.94034	-203.20717	298.91994	1601.93634	-304.03851	114.08431	1565.15213	-352.34459	288.29239	1358.64349	-222.64248	138.0363	1351.24969	-229.27544	291.37997	1422.61032	-365.32356	133.33301	1413.32428	-374.01745	226.99083	1251.8998	-432.50847	210.35234	1286.28815	-196.20083	202.78009	1182.015	-186.52763	417.81174	1383.87833	-265.1771	472.72102	1203.95851	-309.01592	486.30455	1063.87428	-337.60689	491.0331	932.78824	-359.69219	416.03661	769.70963	-314.27374	473.91441	768.30444	-376.24134	468.87753	721.53603	-325.03891	17.99031	1391.34064	-301.68568	-37.89914	1195.48119	-322.34131	-51.40285	1055.97191	-353.91426	-54.76729	957.19757	-369.38961	12.29788	782.44553	-288.53504	-38.52606	774.8867	-359.29226	-50.45443	738.95546	-306.25164	295.20401	961.08116	-211.59967	64.71561	942.37274	-248.52579	301.19537	981.29227	-414.06715	124.17803	986.08002	-427.07542	344.02489	679.55292	-330.56358	333.43903	492.93465	-238.39495	302.9665	322.93571	-180.78106	301.56925	134.05179	-198.00705	230.24221	55.57818	-236.89016	267.8982	53.32282	-39.15104	108.17612	707.99973	-480.64949	73.66	499.06162	-467.1656	134.55754	284.93902	-524.90101	112.92616	154.10124	-649.6788	173.11342	129.96496	-715.45578	152.82367	51.04087	-534.53438
179	5.943	256.85806	1615.78308	-141.35846	93.87217	1588.62427	-184.12062	309.63263	1603.27866	-281.4333	124.21423	1574.63516	-332.92385	291.65909	1363.9299	-201.9611	142.00831	1358.30719	-208.46077	296.39439	1425.6604	-345.11013	138.65561	1418.50708	-354.31541	230.60303	1255.61226	-411.18275	213.56714	1292.16248	-175.20327	205.22907	1187.96516	-165.60068	421.57234	1387.54715	-243.60804	476.66363	1207.06459	-282.3719	490.5883	1066.64383	-308.82004	495.99747	935.24689	-328.90564	419.09428	772.50191	-284.16452	479.41376	770.67314	-343.65269	471.99959	724.07219	-292.56689	23.03702	1400.12329	-281.33343	-34.39394	1205.32364	-303.58524	-46.72377	1065.79178	-338.17173	-47.51422	965.63141	-353.09738	23.56245	793.26996	-270.1824	-26.48965	783.87001	-341.22604	-37.90601	748.11363	-287.85872	301.34605	964.42863	-190.04267	70.40912	946.10802	-226.70555	306.47005	984.66438	-392.22599	129.65058	990.43831	-404.77951	345.62008	682.6358	-317.7047	335.79094	493.78269	-229.01474	304.05251	322.97535	-174.64712	301.33055	135.21569	-195.91097	229.95392	55.35062	-237.01612	267.10991	53.03707	-38.92855	112.1802	710.354	-457.35573	72.56971	502.11452	-443.2774	132.37432	288.85378	-508.55186	110.79018	163.31781	-639.23367	171.5169	143.01195	-704.8278	152.36845	50.61264	-531.70155
